<svg
   width="512"
   height="512"
   xmlns="http://www.w3.org/2000/svg"
   xmlns:svg="http://www.w3.org/2000/svg">
  <path
     fill="#53ac6f"
     stroke="#428958"
     stroke-width="30"
     transform="rotate(90,147.88947,248.67874)"
     d="M 247.87177,301.06187 C 225.10688,314.20519 85.314553,314.20518 62.54966,301.06186 39.784766,287.91854 -30.11139,166.85483 -30.111389,140.5682 c 10e-7,-26.28664 69.89617,-147.350339 92.661064,-160.493656 22.764895,-13.143316 162.557215,-13.143309 185.322115,10e-6 22.76489,13.1433183 92.66105,134.207026 92.66105,160.493666 0,26.28663 -69.89617,147.35033 -92.66107,160.49365 z" />
  <path
     fill="none"
     transform="rotate(90,147.88947,248.67874)"
     d="M 247.87177,301.06187 C 225.10688,314.20519 85.314553,314.20518 62.54966,301.06186 39.784766,287.91854 -30.11139,166.85483 -30.111389,140.5682 c 10e-7,-26.28664 69.89617,-147.350339 92.661064,-160.493656 22.764895,-13.143316 162.557215,-13.143309 185.322115,10e-6 22.76489,13.1433183 92.66105,134.207026 92.66105,160.493666 0,26.28663 -69.89617,147.35033 -92.66107,160.49365 z" />
  <g
     transform="matrix(0.25,0,0,0.25,136,381)">
    <path
       d="m 480,-400 q -50,0 -85,-35 -35,-35 -35,-85 v -240 q 0,-50 35,-85 35,-35 85,-35 50,0 85,35 35,35 35,85 v 240 q 0,50 -35,85 -35,35 -85,35 z m 0,-240 z m -40,520 v -123 q -104,-14 -172,-93 -68,-79 -68,-184 h 80 q 0,83 58.5,141.5 58.5,58.5 141.5,58.5 83,0 141.5,-58.5 Q 680,-437 680,-520 h 80 q 0,105 -68,184 -68,79 -172,93 v 123 z m 40,-360 q 17,0 28.5,-11.5 Q 520,-503 520,-520 v -240 q 0,-17 -11.5,-28.5 Q 497,-800 480,-800 q -17,0 -28.5,11.5 Q 440,-777 440,-760 v 240 q 0,17 11.5,28.5 11.5,11.5 28.5,11.5 z"
       fill="#ffffff" />
  </g>
</svg>
